<svg width="30" height="30" viewBox="0 0 30 30" fill="none" xmlns="http://www.w3.org/2000/svg">
<path d="M3.33333 30H0V28.4211C0.00734773 22.3197 5.22639 17.3754 11.6667 17.3684H18.3333C24.7736 17.3754 29.9927 22.3197 30 28.4211V30H26.6667V28.4211C26.6612 24.0631 22.9334 20.5315 18.3333 20.5263H11.6667C7.06658 20.5315 3.33884 24.0631 3.33333 28.4211V30ZM15 15.7895C10.3976 15.7895 6.66667 12.2549 6.66667 7.89474C6.66667 3.53459 10.3976 0 15 0C19.6024 0 23.3333 3.53459 23.3333 7.89474C23.3278 12.2527 19.6001 15.7843 15 15.7895ZM15 3.15789C12.2386 3.15789 10 5.27865 10 7.89474C10 10.5108 12.2386 12.6316 15 12.6316C17.7614 12.6316 20 10.5108 20 7.89474C20 5.27865 17.7614 3.15789 15 3.15789Z" fill="#2E3A59"/>
</svg>
