<svg width="30" height="30" viewBox="0 0 30 30" fill="none" xmlns="http://www.w3.org/2000/svg">
<path d="M27.4438 30L17.1196 19.6746C12.5269 22.9396 6.19825 22.141 2.56073 17.8374C-1.07679 13.5338 -0.809699 7.16096 3.17517 3.17679C7.15899 -0.809128 13.5328 -1.07736 17.8375 2.55975C22.1421 6.19686 22.9413 12.5257 19.6758 17.1186L30 27.4439L27.4456 29.9982L27.4438 30ZM10.8384 3.61391C7.4127 3.61314 4.45723 6.01767 3.76133 9.37171C3.06544 12.7258 4.82038 16.1075 7.96364 17.4694C11.1069 18.8314 14.7746 17.7993 16.7461 14.998C18.7176 12.1966 18.4511 8.39604 16.108 5.89722L17.2009 6.98106L15.9689 5.75271L15.9472 5.73103C14.5955 4.37113 12.7558 3.60874 10.8384 3.61391Z" fill="#2E3A59"/>
</svg>
