<svg width="30" height="33" viewBox="0 0 30 33" fill="none" xmlns="http://www.w3.org/2000/svg">
<path d="M15 33C12.9289 33 11.25 31.5225 11.25 29.7H18.75C18.75 31.5225 17.0711 33 15 33ZM30 28.05H0V24.75L3.75 23.1V14.025C3.75 8.3127 6.41437 4.60845 11.25 3.597V0H18.75V3.597C23.5856 4.6068 26.25 8.3094 26.25 14.025V23.1L30 24.75V28.05ZM15 6.1875C12.7119 6.05748 10.5052 6.95851 9.14062 8.58C7.97352 10.2045 7.40088 12.105 7.5 14.025V24.75H22.5V14.025C22.599 12.105 22.0264 10.2046 20.8594 8.58C19.4948 6.95851 17.2881 6.05748 15 6.1875Z" fill="#2E3A59"/>
</svg>
