<svg width="36" height="36" viewBox="0 0 36 36" fill="none" xmlns="http://www.w3.org/2000/svg">
<path fill-rule="evenodd" clip-rule="evenodd" d="M24.502 4.1253H11.4985C6.96704 4.1253 4.12604 7.3338 4.12604 11.8743V24.1263C4.12604 28.6668 6.95204 31.8753 11.4985 31.8753H24.5005C29.047 31.8753 31.876 28.6668 31.876 24.1263V11.8743C31.876 7.3338 29.047 4.1253 24.502 4.1253Z" stroke="#200E32" stroke-width="1.5" stroke-linecap="round" stroke-linejoin="round"/>
<path d="M11.2812 19.7961C10.2897 19.7961 9.48419 18.9906 9.48419 18.0006C9.48419 17.0106 10.2897 16.2036 11.2812 16.2036C12.2727 16.2036 13.0782 17.0106 13.0782 18.0006C13.0782 18.9906 12.2727 19.7961 11.2812 19.7961Z" fill="#200E32"/>
<path d="M18.0003 19.7961C17.0088 19.7961 16.2033 18.9906 16.2033 18.0006C16.2033 17.0106 17.0088 16.2036 18.0003 16.2036C18.9918 16.2036 19.7973 17.0106 19.7973 18.0006C19.7973 18.9906 18.9918 19.7961 18.0003 19.7961Z" fill="#200E32"/>
<path d="M24.7188 19.7961C23.7273 19.7961 22.9218 18.9906 22.9218 18.0006C22.9218 17.0106 23.7273 16.2036 24.7188 16.2036C25.7103 16.2036 26.5158 17.0106 26.5158 18.0006C26.5158 18.9906 25.7103 19.7961 24.7188 19.7961Z" fill="#200E32"/>
</svg>
